<?xml version="1.0" encoding="UTF-8"?>
<svg id="Layer_1" data-name="Layer 1" xmlns="http://www.w3.org/2000/svg" version="1.1" viewBox="0 0 841.9 595.3">
  <defs>
    <style>
      .cls-1 {
        fill: #fff;
      }

      .cls-1, .cls-2 {
        stroke-width: 0px;
      }

      .cls-2 {
        fill: #66bc46;
      }
    </style>
  </defs>
  <path class="cls-2" d="M512.4,550.3h-183c-39.2,0-74.9-15.3-101.3-40.2-28.8-27-46.7-65.3-46.7-107.8v-183c0-36.4,13.1-69.7,34.9-95.5,27.1-32.1,67.8-52.6,113.2-52.6h183c40.9,0,77.9,16.6,104.6,43.3,26.8,26.8,43.4,63.8,43.4,104.7v183c0,37.2-13.8,71.3-36.5,97.3-27.1,31.1-67,50.7-111.5,50.7"/>
  <path class="cls-1" d="M407.4,192.6c-11,9.6-21.3,22-21.3,29.3,0,4.4,2.6,6.4,5.7,7.1,49.6,9.7,95.5,37.2,127.3,79.9,3.6,5.3,8.8,13.6,13.1,27.1,18.1,56.1-13.4,90.5-37.8,108.9,0,0-.1,0-.2,0,0,0,.1,0,.2,0-1.2.9-2.3,1.7-3.5,2.5,28.8-16.1,48.4-35.8,63.9-62.7v-.4s0,.2.1.3c25.3-45.7,26.6-103.2-1.7-151.4-9.2-15.6-20.7-29.1-33.9-40-8-6.6-17-12.1-26.7-15.6-37.8-13.6-66.3-1.6-85.4,15"/>
  <path class="cls-1" d="M325.6,381.5c13.8,4.7,29.7,7.5,36,3.8,3.8-2.2,4.4-5.4,3.3-8.4-16.4-47.8-15.6-101.3,5.4-150.3,2.7-5.7,7.4-14.4,16.8-24.9,41.4-45.9,89.4-32.7,117.2-20.1-28.3-16.8-55.1-24-86.3-24l-.4.3.3-.3c-52.2.9-102.6,28.6-130.3,77.3-8.9,15.8-14.8,32.4-17.6,49.4-1.8,10.2-2,20.7-.1,30.9,7.1,39.5,31.8,58.2,55.8,66.3"/>
  <path class="cls-1" d="M290,389.3s-.2,0-.4,0c26.7,44.8,75.8,74.9,131.7,74.7,18.1,0,35.5-3.2,51.7-9.2,9.7-3.6,18.9-8.6,26.9-15.3,30.9-25.7,33.9-54.8,30-81.3-2.1-14.4-8.3-29.5-14.5-33.1-3.8-2.2-6.9-1.1-9,1.4-33.3,38-80.3,63.8-133.2,69.9-6.3.5-16.2.7-30-2.3-60.4-13.1-72.7-61.4-75.6-91.8-.5,32.9,6.6,59.8,22,86.8l.4.2h0Z"/>
</svg>