<svg width="59" height="76" viewBox="0 0 59 76" fill="none" xmlns="http://www.w3.org/2000/svg">
    <g clip-path="url(#clip0_14_146)">
        <path d="M40.7715 58.2603H18.2332C13.4055 58.2603 9.01254 56.4018 5.75249 53.3744C2.21036 50.0959 0 45.4338 0 40.2603V18.0046C0 13.5753 1.61847 9.52511 4.29587 6.39269C7.63916 2.48858 12.6425 0 18.2332 0H40.7715C45.8072 0 50.362 2.0137 53.6591 5.26941C56.9607 8.52511 59.0046 13.0274 59.0046 18V40.2557C59.0046 44.7854 57.3029 48.9224 54.5099 52.0913C51.1666 55.8767 46.2557 58.2603 40.7761 58.2603" fill="#66BC46"/>
        <path d="M27.833 14.7534C26.4827 15.9178 25.2064 17.4292 25.2111 18.3151C25.2111 18.8493 25.5255 19.0959 25.9139 19.1735C32.0179 20.3516 37.6732 23.7032 41.5992 28.8904C42.0477 29.5342 42.6812 30.5479 43.2176 32.1827C45.4511 39.0046 41.5622 43.1918 38.5565 45.4338C38.5518 45.4338 38.5426 45.4384 38.538 45.4384C38.5426 45.4384 38.5518 45.4384 38.5565 45.4338C38.4131 45.5434 38.2744 45.6438 38.131 45.7397C41.6732 43.7808 44.0962 41.3881 46.006 38.1142V38.0639C46.006 38.0639 46.0107 38.0913 46.0199 38.1005C49.1412 32.5479 49.2985 25.5525 45.8118 19.6849C44.6835 17.7854 43.2639 16.1507 41.6408 14.8219C40.6559 14.0137 39.546 13.3516 38.3484 12.9269C33.6918 11.2694 30.1774 12.7306 27.833 14.7534Z" fill="white"/>
        <path d="M17.7615 37.7306C19.4632 38.3014 21.4239 38.6393 22.1915 38.1872C22.6631 37.9224 22.7279 37.5251 22.5984 37.1644C20.5776 31.347 20.6794 24.8402 23.2597 18.8813C23.5926 18.1826 24.1753 17.1279 25.3313 15.8539C30.4272 10.2694 36.3415 11.8813 39.7634 13.4064C36.2721 11.3653 32.9705 10.4931 29.137 10.4931L29.0908 10.5251C29.0908 10.5251 29.1093 10.5068 29.1231 10.4931C22.6909 10.6073 16.4806 13.9726 13.0772 19.8904C11.9813 21.8128 11.2599 23.831 10.9085 25.895C10.6911 27.137 10.668 28.411 10.8946 29.6575C11.7686 34.4657 14.8159 36.7352 17.7615 37.726" fill="white"/>
        <path d="M13.3732 38.6849C13.3732 38.6849 13.3454 38.6804 13.3269 38.6804C16.6193 44.1279 22.6585 47.7854 29.5486 47.7671C31.782 47.7626 33.923 47.3744 35.9114 46.653C37.1091 46.2192 38.242 45.6027 39.2224 44.79C43.0234 41.6621 43.3934 38.1187 42.9125 34.8995C42.6535 33.1507 41.8951 31.3151 41.1229 30.8721C40.6512 30.6073 40.272 30.7397 40.0131 31.0365C35.9068 35.653 30.1266 38.7945 23.6111 39.5388C22.8296 39.5982 21.6135 39.6256 19.921 39.2603C12.4853 37.6621 10.9639 31.7945 10.6079 28.1005C10.5431 32.105 11.4171 35.3744 13.3177 38.6575L13.3685 38.6849H13.3732Z" fill="white"/>
        <path d="M10.5616 75.9087V69.0776H13.1373C13.5165 69.0776 13.8633 69.2283 14.1084 69.4794C14.3581 69.7215 14.5153 70.0639 14.5153 70.4383V75.9087H16.4852V70.1872C16.4852 69.3744 16.1708 68.6347 15.6436 68.0868C15.0841 67.4931 14.2841 67.1324 13.3963 67.1324H8.58712V75.9087H10.5663H10.5616Z" fill="#5B6770"/>
        <path d="M53.0764 75.9087V69.0776H55.6521C56.0266 69.0776 56.3596 69.2237 56.6047 69.4612C56.8636 69.7078 57.0255 70.0594 57.0255 70.4384V75.9087H59.0046V70.1872C59.0046 69.347 58.6624 68.589 58.1168 68.0457C57.548 67.4795 56.7758 67.137 55.9157 67.137H51.1065V75.9132H53.0857L53.0764 75.9087Z" fill="#5B6770"/>
        <path d="M5.92358 67.1279V73.9589H3.34791C2.96873 73.9589 2.62654 73.8082 2.37683 73.5571C2.13175 73.3151 1.97915 72.9726 1.97915 72.5982V67.1279H0V72.8493C0 73.6712 0.323693 74.4064 0.85085 74.9543C1.41963 75.5388 2.21036 75.8995 3.09358 75.8995H7.90274V67.1233H5.92358V67.1279Z" fill="#5B6770"/>
        <path d="M19.158 67.1324H17.1789V75.9087H19.158V67.1324Z" fill="#5B6770"/>
        <path d="M41.7703 67.1324H39.7911V75.9087H41.7703V67.1324Z" fill="#5B6770"/>
        <path d="M30.8248 67.1324H28.8457V75.9087H30.8248V67.1324Z" fill="#5B6770"/>
        <path d="M38.7553 69.0776L38.9495 67.1233H34.0803C33.2294 67.1233 32.4618 67.516 31.967 68.1279C31.5924 68.5845 31.3659 69.169 31.3659 69.8082C31.3659 70.5525 31.6664 71.2192 32.1658 71.7078C32.6653 72.1963 33.3311 72.4886 34.0803 72.4886H36.5866C36.7947 72.4886 36.9796 72.5708 37.1137 72.7032C37.2478 72.8311 37.3264 73.0137 37.3264 73.2192C37.3264 73.4018 37.2617 73.5753 37.1461 73.7032C37.012 73.8539 36.8132 73.9498 36.5866 73.9498H31.8606L31.6664 75.9041H36.5866C37.4235 75.9041 38.1773 75.5297 38.6721 74.9361C39.0651 74.4703 39.301 73.8722 39.301 73.2192C39.301 72.4795 39.0004 71.8128 38.5102 71.3242C38.0201 70.8402 37.3403 70.5343 36.5866 70.5343H34.0803C33.8814 70.5343 33.6918 70.4521 33.5577 70.3242C33.4236 70.1918 33.345 70.0046 33.345 69.8037C33.345 69.653 33.3913 69.5069 33.4791 69.3836C33.6086 69.2009 33.8352 69.0731 34.0803 69.0731H38.7553V69.0776Z" fill="#5B6770"/>
        <path d="M42.5286 70.3379V72.7032C42.5286 73.6119 42.9032 74.4384 43.509 75.0365C44.1147 75.6347 44.9517 76.0046 45.8719 76.0046H47.0881C48.0083 76.0046 48.8453 75.6347 49.4511 75.0365C50.0568 74.4384 50.4314 73.6119 50.4314 72.7032V70.3379C50.4314 69.5068 50.1169 68.7397 49.599 68.1552C48.9886 67.4703 48.0915 67.0365 47.0881 67.0365H45.8719C44.9517 67.0365 44.1147 67.4064 43.509 68.0046C42.9032 68.6027 42.5286 69.4247 42.5286 70.3379ZM47.1667 74.0502H45.8026C45.4419 74.0502 45.1182 73.9087 44.887 73.6758C44.6465 73.4475 44.5078 73.1279 44.5078 72.7808V70.2648C44.5078 69.9224 44.6511 69.6027 44.8731 69.3744C45.1136 69.137 45.4326 68.9909 45.8026 68.9909H47.1667C47.5228 68.9909 47.8418 69.1324 48.0823 69.3607C48.3135 69.5982 48.4569 69.9132 48.4569 70.2648V72.7808C48.4569 73.1187 48.3274 73.4155 48.11 73.6438C47.8788 73.8995 47.5413 74.0502 47.1713 74.0502" fill="#5B6770"/>
        <path d="M24.6238 75.9087H22.6493L19.5326 67.1324H21.5071L24.6238 75.9087Z" fill="#5B6770"/>
        <path d="M23.1394 75.9087H25.1186L28.2353 67.1324H26.2561L23.1394 75.9087Z" fill="#5B6770"/>
    </g>
    <defs>
        <clipPath id="clip0_14_146">
            <rect width="59" height="76" fill="white"/>
        </clipPath>
    </defs>
</svg>
