<svg width="703" height="35" viewBox="0 0 703 35" fill="none" xmlns="http://www.w3.org/2000/svg">
    <path d="M22.4 0.999998H28.76L16.84 23.16C14.52 27.48 11.2 29.64 7.44 29.64C5.96 29.64 4.44 29.32 2.88 28.68L4.44 23.76C5.48 24.08 6.4 24.28 7.24 24.28C8.84 24.28 10.08 23.56 11.16 21.88L11.4 21.56L0.36 0.999998H7.28L14.72 16.04L22.4 0.999998ZM43.9594 0.999998C51.4394 0.999998 56.1194 4.88 56.1194 11.16C56.1194 17.4 51.4394 21.28 43.9594 21.28H38.3194V29H31.8394V0.999998H43.9594ZM43.5994 16C47.5594 16 49.5594 14.2 49.5594 11.16C49.5594 8.08 47.5594 6.28 43.5994 6.28H38.3194V16H43.5994ZM80.4278 29L77.9478 23H64.9478L62.4678 29H55.8278L68.3078 0.999998H74.7078L87.2278 29H80.4278ZM67.0278 18.08H75.9078L71.4678 7.36L67.0278 18.08ZM122.501 29H116.421L116.381 12.24L108.141 26.04H105.261L97.0209 12.56V29H90.9409V0.999998H96.3009L106.781 18.4L117.101 0.999998H122.461L122.501 29ZM159.977 0.999998H166.417V29H129.457V0.999998H135.897V23.72H144.737V0.999998H151.177V23.72H159.977V0.999998ZM192.283 0.999998H198.643L186.723 23.16C184.403 27.48 181.083 29.64 177.323 29.64C175.843 29.64 174.323 29.32 172.763 28.68L174.323 23.76C175.363 24.08 176.283 24.28 177.123 24.28C178.723 24.28 179.963 23.56 181.043 21.88L181.283 21.56L170.243 0.999998H177.163L184.603 16.04L192.283 0.999998ZM220.173 0.999998H226.533L214.613 23.16C212.293 27.48 208.973 29.64 205.213 29.64C203.733 29.64 202.213 29.32 200.653 28.68L202.213 23.76C203.253 24.08 204.173 24.28 205.013 24.28C206.613 24.28 207.853 23.56 208.933 21.88L209.173 21.56L198.133 0.999998H205.053L212.493 16.04L220.173 0.999998ZM232.584 0.999998H254.104V29H247.704V6.28H238.104L237.904 12.12C237.544 23.12 235.984 29.44 229.424 29.44C228.464 29.44 227.424 29.28 226.224 29L226.624 23.52C227.024 23.64 227.384 23.68 227.784 23.68C231.064 23.68 231.904 19.52 232.184 12.36L232.584 0.999998ZM282.537 29L280.057 23H267.057L264.577 29H257.937L270.417 0.999998H276.817L289.337 29H282.537ZM269.137 18.08H278.017L273.577 7.36L269.137 18.08ZM296.725 0.999998H318.245V29H311.845V6.28H302.245L302.045 12.12C301.685 23.12 300.125 29.44 293.565 29.44C292.605 29.44 291.565 29.28 290.365 29L290.765 23.52C291.165 23.64 291.525 23.68 291.925 23.68C295.205 23.68 296.045 19.52 296.325 12.36L296.725 0.999998ZM361.526 23.72H365.446V34.8H359.446V29H339.686V34.8H333.686L333.726 23.72H334.846C338.486 23.6 339.406 17.6 339.686 9.76L340.006 0.999998H361.526V23.72ZM345.406 10.36C345.166 16.32 344.526 21.44 342.606 23.72H355.126V6.28H345.526L345.406 10.36ZM391.483 29L389.003 23H376.003L373.523 29H366.883L379.363 0.999998H385.763L398.283 29H391.483ZM378.083 18.08H386.963L382.523 7.36L378.083 18.08ZM398.11 0.999998H405.59L411.39 9.48L417.19 0.999998H424.79L415.47 14.4L425.55 29H417.91L411.39 19.72L404.95 29H397.47L407.47 14.68L398.11 0.999998ZM428.519 29V0.999998H434.959V19.24L448.319 0.999998H454.399V29H447.999V10.8L434.639 29H428.519ZM480.571 0.999998H487.051V29H480.571V17.52H467.851V29H461.371V0.999998H467.851V12.04H480.571V0.999998ZM514.354 0.52C522.754 0.52 528.874 6.56 528.874 15C528.874 23.44 522.754 29.48 514.354 29.48C509.394 29.48 505.314 27.72 502.674 24.48L506.794 20.64C508.754 22.84 511.154 23.96 514.034 23.96C518.154 23.96 521.194 21.32 522.034 17.32H510.674V12.36H521.954C521.034 8.52 518.034 6.04 514.034 6.04C511.154 6.04 508.754 7.16 506.794 9.36L502.674 5.52C505.314 2.28 509.394 0.52 514.354 0.52ZM530.493 0.999998H537.973L543.773 9.48L549.573 0.999998H557.173L547.853 14.4L557.933 29H550.293L543.773 19.72L537.333 29H529.853L539.853 14.68L530.493 0.999998ZM568.807 0.52C577.207 0.52 583.327 6.56 583.327 15C583.327 23.44 577.207 29.48 568.807 29.48C563.847 29.48 559.767 27.72 557.127 24.48L561.247 20.64C563.207 22.84 565.607 23.96 568.487 23.96C572.607 23.96 575.647 21.32 576.487 17.32H565.127V12.36H576.407C575.487 8.52 572.487 6.04 568.487 6.04C565.607 6.04 563.207 7.16 561.247 9.36L557.127 5.52C559.767 2.28 563.847 0.52 568.807 0.52ZM591.061 0.999998H612.581V29H606.181V6.28H596.581L596.381 12.12C596.021 23.12 594.461 29.44 587.901 29.44C586.941 29.44 585.901 29.28 584.701 29L585.101 23.52C585.501 23.64 585.861 23.68 586.261 23.68C589.541 23.68 590.381 19.52 590.661 12.36L591.061 0.999998ZM622.818 0.999998H644.338V29H637.938V6.28H628.338L628.138 12.12C627.778 23.12 626.218 29.44 619.658 29.44C618.698 29.44 617.658 29.28 616.458 29L616.858 23.52C617.258 23.64 617.618 23.68 618.018 23.68C621.298 23.68 622.138 19.52 622.418 12.36L622.818 0.999998ZM660.292 0.52C668.692 0.52 674.812 6.56 674.812 15C674.812 23.44 668.692 29.48 660.292 29.48C655.332 29.48 651.252 27.72 648.612 24.48L652.732 20.64C654.692 22.84 657.092 23.96 659.972 23.96C664.092 23.96 667.132 21.32 667.972 17.32H656.612V12.36H667.892C666.972 8.52 663.972 6.04 659.972 6.04C657.092 6.04 654.692 7.16 652.732 9.36L648.612 5.52C651.252 2.28 655.332 0.52 660.292 0.52ZM688.065 0.52C696.465 0.52 702.585 6.56 702.585 15C702.585 23.44 696.465 29.48 688.065 29.48C683.105 29.48 679.025 27.72 676.385 24.48L680.505 20.64C682.465 22.84 684.865 23.96 687.745 23.96C691.865 23.96 694.905 21.32 695.745 17.32H684.385V12.36H695.665C694.745 8.52 691.745 6.04 687.745 6.04C684.865 6.04 682.465 7.16 680.505 9.36L676.385 5.52C679.025 2.28 683.105 0.52 688.065 0.52Z" fill="#5B6770"/>
</svg>
