<svg width="376" height="36" viewBox="0 0 376 36" fill="none" xmlns="http://www.w3.org/2000/svg">
    <g clip-path="url(#clip0_50_13)">
        <path d="M22.2956 35.5159L15.548 25.62H8.09899V35.5159H0V0H15.1459C24.4934 0 30.3432 4.92182 30.3432 12.886C30.3432 18.2112 27.6918 22.1221 23.1467 24.1013L30.9931 35.5159H22.2956ZM14.697 6.6969H8.09899V19.075H14.697C19.6443 19.075 22.146 16.7399 22.146 12.886C22.146 9.03204 19.6443 6.6969 14.697 6.6969Z" fill="#65BC46"/>
        <path d="M59.7839 27.9077H43.5391L40.4389 35.5206H32.1388L47.7382 0H55.7344L71.3806 35.5159H62.8841L59.7839 27.903V27.9077ZM57.2354 21.6664L51.6849 8.06856L46.1343 21.6664H57.2307H57.2354Z" fill="#65BC46"/>
        <path d="M99.3249 0L84.179 35.5159H76.1829L61.0838 0H69.8328L80.4802 25.3685L91.2773 0H99.3249Z" fill="#65BC46"/>
        <path d="M128.77 28.0596H123.07V35.5159H115.172V28.0596H96.3275V22.5303L112.82 0H121.317L106.021 21.3627H115.42V14.718H123.07V21.3627H128.77V28.0596Z" fill="#65BC46"/>
        <path d="M135.485 21.9323H146.507V26.8731H135.485V21.9323Z" fill="#5B6770"/>
        <path d="M172.828 13.0758H164.103V35.5254H157.87V13.0758H149.186V7.85974H172.824V13.0758H172.828Z" fill="#5B6770"/>
        <path d="M199.66 21.6949C199.66 30.034 193.702 36.0047 185.524 36.0047C180.694 36.0047 176.724 34.2676 174.152 31.0639L178.164 27.267C180.072 29.4407 182.41 30.5466 185.211 30.5466C189.223 30.5466 192.183 27.9362 193.001 23.9826H181.942V19.0798H192.926C192.028 15.2875 189.111 12.8338 185.215 12.8338C182.41 12.8338 180.076 13.9396 178.168 16.1134L174.156 12.3164C176.728 9.11272 180.698 7.37561 185.529 7.37561C193.707 7.37561 199.664 13.3463 199.664 21.6854L199.66 21.6949Z" fill="#5B6770"/>
        <path d="M204.602 7.8597H210.873V25.8858L223.882 7.8597H229.802V35.5301H223.569V17.5467L210.56 35.5301H204.602V7.8597ZM209.629 0.0332031H213.95C213.987 1.93169 215.04 2.9189 217.181 2.9189C219.323 2.9189 220.375 1.93169 220.412 0.0332031H224.738C224.7 3.90611 222.283 6.07987 217.181 6.07987C212.08 6.07987 209.667 3.90611 209.625 0.0332031H209.629Z" fill="#5B6770"/>
        <path d="M262.6 21.244H256.998V35.5586H248.946V0.0284424H256.998V14.3905H262.796L272.004 0.0284424H280.556L269.104 17.1812L280.907 35.5538H271.704L262.605 21.2393L262.6 21.244Z" fill="#5B6770"/>
        <path d="M284.288 7.85962H290.558V25.8857L303.567 7.85962H309.487V35.53H303.254V17.5466L290.245 35.53H284.288V7.85962Z" fill="#5B6770"/>
        <path d="M341.261 7.85962V35.53H334.953V24.1866H322.571V35.53H316.263V7.85962H322.571V18.7712H334.953V7.85962H341.261Z" fill="#5B6770"/>
        <path d="M346.167 21.6948C346.167 13.4744 352.475 7.38501 361.083 7.38501C369.692 7.38501 376 13.4317 376 21.6948C376 29.958 369.655 36.0047 361.083 36.0047C352.512 36.0047 346.167 29.9153 346.167 21.6948ZM369.612 21.6948C369.612 16.436 365.951 12.8432 361.083 12.8432C356.215 12.8432 352.554 16.4408 352.554 21.6948C352.554 26.9489 356.215 30.5513 361.083 30.5513C365.951 30.5513 369.612 26.9536 369.612 21.6948Z" fill="#5B6770"/>
    </g>
    <defs>
        <clipPath id="clip0_50_13">
            <rect width="376" height="36" fill="white"/>
        </clipPath>
    </defs>
</svg>
