<svg width="431" height="49" viewBox="0 0 431 49" fill="none" xmlns="http://www.w3.org/2000/svg">
    <g clip-path="url(#clip0_112_83)">
        <path d="M31.5568 48.9935L22.0063 35.3423H11.4632V48.9935H0V0H21.4372C34.6674 0 42.9471 6.78955 42.9471 17.7759C42.9471 25.122 39.1945 30.517 32.7613 33.2472L43.8671 48.9935H31.5568ZM20.8018 9.23824H11.4632V26.3136H20.8018C27.8041 26.3136 31.345 23.0923 31.345 17.7759C31.345 12.4595 27.8041 9.23824 20.8018 9.23824Z" fill="#64BE00"/>
        <path d="M84.6169 38.4981H61.6244L57.2363 49H45.4886L67.5677 0H78.8853L101.031 48.9935H89.0049L84.6169 38.4916V38.4981ZM81.0098 29.8884L73.1537 11.1304L65.2976 29.8884H81.0098Z" fill="#64BE00"/>
        <path d="M140.582 0L119.145 48.9935H107.828L86.4568 0H98.8399L113.91 34.9953L129.192 0H140.582Z" fill="#64BE00"/>
        <path d="M182.259 38.7076H174.191V48.9935H163.012V38.7076H136.34V31.08L159.683 0H171.709L150.06 29.4694H163.363V20.3032H174.191V29.4694H182.259V38.7076Z" fill="#64BE00"/>
        <path d="M272.554 28.8867H264.725V48.378H253.473V0H264.725V19.5568H272.826L285.692 0H297.645L281.641 23.3608L298.135 48.378H285.275L272.561 28.8867H272.554Z" fill="#5B6770"/>
        <path d="M302.854 10.6655H311.616V35.2114L329.791 10.6655H338.064V48.3452H329.354V23.8518L311.18 48.3452H302.854V10.6655Z" fill="#5B6770"/>
        <path d="M382.46 10.6655V48.3452H373.645V32.9002H356.344V48.3452H347.528V10.6655H356.344V25.5279H373.645V10.6655H382.46Z" fill="#5B6770"/>
        <path d="M389.317 29.5021C389.317 18.3062 398.133 10.0173 410.159 10.0173C422.184 10.0173 431 18.2538 431 29.5021C431 40.7504 422.131 48.9869 410.159 48.9869C398.186 48.9869 389.317 40.6914 389.317 29.5021ZM422.078 29.5021C422.078 22.3394 416.962 17.4485 410.159 17.4485C403.355 17.4485 398.239 22.3459 398.239 29.5021C398.239 36.6583 403.355 41.5622 410.159 41.5622C416.962 41.5622 422.078 36.6649 422.078 29.5021Z" fill="#5B6770"/>
        <path d="M238.588 28.2058H223.253V43.1992H213.988V28.2058H198.653V19.6354H213.988V4.64209H223.253V19.6354H238.588V28.2058Z" fill="#5B6770"/>
    </g>
    <defs>
        <clipPath id="clip0_112_83">
            <rect width="431" height="49" fill="white"/>
        </clipPath>
    </defs>
</svg>
