<svg width="521" height="678" viewBox="0 0 521 678" fill="none" xmlns="http://www.w3.org/2000/svg">
    <g clip-path="url(#clip0_76_18)">
        <path d="M360.137 519.743H161.494C118.945 519.743 80.2275 503.164 51.4948 476.156C20.2761 446.908 0.794922 405.317 0.794922 359.164V160.62C0.794922 121.106 15.0594 84.974 38.6568 57.0296C68.1231 22.2008 112.221 0 161.494 0H360.137C404.519 0 444.664 17.9643 473.722 47.0086C502.822 76.053 520.836 116.218 520.836 160.579V359.123C520.836 399.533 505.838 436.439 481.221 464.709C451.755 498.479 408.473 519.743 360.177 519.743" fill="#66BC46"/>
        <path d="M246.103 131.616C234.202 142.004 222.953 155.487 222.994 163.39C222.994 168.156 225.766 170.355 229.189 171.048C282.986 181.558 332.83 211.457 367.432 257.733C371.385 263.477 376.969 272.52 381.696 287.103C401.381 347.962 367.106 385.316 340.615 405.317C340.574 405.317 340.492 405.358 340.452 405.358C340.492 405.358 340.574 405.358 340.615 405.317C339.351 406.295 338.129 407.191 336.865 408.046C368.084 390.571 389.44 369.226 406.272 340.018V339.57C406.272 339.57 406.313 339.815 406.394 339.896C433.904 290.362 435.29 227.955 404.56 175.61C394.616 158.664 382.104 144.081 367.799 132.227C359.118 125.017 349.336 119.11 338.781 115.322C297.74 100.535 266.766 113.57 246.103 131.616Z" fill="white"/>
        <path d="M157.337 336.596C172.335 341.688 189.615 344.703 196.381 340.67C200.538 338.307 201.109 334.763 199.967 331.545C182.157 279.648 183.054 221.6 205.795 168.441C208.73 162.208 213.865 152.798 224.054 141.433C268.967 91.6138 321.093 105.993 351.252 119.599C320.482 101.39 291.382 93.6099 257.596 93.6099L257.188 93.895C257.188 93.895 257.351 93.7321 257.473 93.6099C200.783 94.6282 146.048 124.65 116.052 177.443C106.393 194.593 100.035 212.598 96.9374 231.01C95.0219 242.09 94.8181 253.456 96.8151 264.576C104.518 307.471 131.376 327.716 157.337 336.556" fill="white"/>
        <path d="M118.66 345.11C118.66 345.11 118.416 345.069 118.253 345.069C147.27 393.667 200.497 426.296 261.223 426.133C280.908 426.092 299.778 422.63 317.303 416.193C327.858 412.324 337.843 406.824 346.484 399.573C379.985 371.67 383.245 340.059 379.007 311.341C376.724 295.739 370.04 279.363 363.234 275.412C359.077 273.049 355.735 274.231 353.453 276.878C317.262 318.062 266.317 346.088 208.893 352.728C202.005 353.257 191.286 353.502 176.37 350.243C110.835 335.985 97.4264 283.64 94.2883 250.686C93.7177 286.41 101.42 315.577 118.171 344.866L118.619 345.11H118.66Z" fill="white"/>
    </g>
    <defs>
        <clipPath id="clip0_76_18">
            <rect width="520" height="678" fill="white" transform="translate(0.794922)"/>
        </clipPath>
    </defs>
</svg>
